<svg width="51" height="46" viewBox="0 0 51 46" fill="none" xmlns="http://www.w3.org/2000/svg">
    <rect x="0.5" y="0.5" width="50" height="45" rx="7.5" fill="#131313"/>
    <rect x="0.5" y="0.5" width="50" height="45" rx="7.5" stroke="#4D5358"/>
    <g clip-path="url(#clip0_1_359)">
    <path d="M27.972 12V17.4812C27.3387 17.3703 26.6843 17.3243 25.9965 17.3243C25.2752 17.3243 24.5874 17.3771 23.9259 17.4949V12H27.972Z" fill="#00F0C9"/>
    <path d="M35 25.7601C35 27.3296 34.6024 28.7626 33.8126 30.0506C33.0297 31.3318 31.9513 32.3519 30.595 33.1111C29.2334 33.8634 27.7011 34.2353 25.9947 34.2353C24.2883 34.2353 22.7912 33.8617 21.4296 33.1111C20.0733 32.3519 18.9949 31.3318 18.1927 30.0506C17.3976 28.7626 16.9982 27.3296 16.9982 25.7601C16.9982 24.1907 17.3958 22.7321 18.1927 21.4441C18.9949 20.1629 20.0751 19.1428 21.4296 18.4024C22.2125 17.9776 23.0411 17.6705 23.9242 17.4931V20.9136C22.1368 21.6659 20.8896 23.3991 20.8896 25.407C20.8896 28.1143 23.1554 30.3116 25.9472 30.3116C28.7391 30.3116 31.0049 28.1143 31.0049 25.407C31.0049 23.3991 29.7576 21.6659 27.9703 20.9136V17.4744C28.8868 17.6518 29.7506 17.9589 30.5598 18.4024C31.9214 19.1411 33.0016 20.1612 33.7967 21.4441C34.5919 22.7321 34.9965 24.1719 34.9965 25.7601H35Z" fill="#00F0C9"/>
    </g>
    <defs>
    <clipPath id="clip0_1_359">
    <rect width="18" height="22.2353" fill="white" transform="translate(17 12)"/>
    </clipPath>
    </defs>
    </svg>
    